<!--?xml version="1.0" encoding="utf-8"?-->
<!-- Generator: Adobe Illustrator 18.0.0, SVG Export Plug-In . SVG Version: 6.00 Build 0)  -->

<svg version="1.1" id="_x32_" xmlns="http://www.w3.org/2000/svg" xmlns:xlink="http://www.w3.org/1999/xlink" x="0px" y="0px" viewBox="0 0 512 512" style="width: 256px; height: 256px; opacity: 1;" xml:space="preserve">
<style type="text/css">
	.st0{fill:#4B4B4B;}
</style>
<g>
	<path class="st0" d="M256.102,275.689c-13.136,0-26.131-2.015-38.62-5.994l-2.073-0.66v203.275c0,5.792,2.199,11.289,6.227,15.512
		l17.453,17.216c4.276,4.488,10.047,6.96,16.246,6.96c6.202,0,11.97-2.473,16.211-6.926l17.525-17.286
		c3.992-4.192,6.19-9.685,6.19-15.477V269.556l-2.052,0.625C281.193,273.838,268.709,275.689,256.102,275.689z" style="fill: rgb(46, 5, 237);"></path>
	<path class="st0" d="M255.999,0c-68.961,0-125.063,56.106-125.063,125.069c0,68.959,56.102,125.065,125.063,125.065
		s125.065-56.106,125.065-125.065C381.064,56.106,324.96,0,255.999,0z M217.269,126.047c-20.052,0-36.366-16.312-36.366-36.366
		c0-20.05,16.314-36.362,36.366-36.362s36.366,16.312,36.366,36.362C253.635,109.735,237.321,126.047,217.269,126.047z" style="fill: rgb(46, 5, 237);"></path>
</g>
</svg>
